# Blender v2.79 (sub 0) OBJ File: 'csphere.blend'
# www.blender.org
mtllib csphere.mtl
o Cube_Cube.001
v -0.878472 0.000000 0.000000
v -0.819444 0.000000 0.350694
v -0.819444 0.350694 0.000000
v -0.819444 0.000000 -0.350694
v -0.819444 -0.350694 0.000000
v -0.763889 -0.326389 0.326389
v -0.763889 0.326389 0.326389
v -0.763889 0.326389 -0.326389
v -0.763889 -0.326389 -0.326389
v 0.000000 0.000000 -0.878472
v -0.350694 0.000000 -0.819444
v 0.000000 0.350694 -0.819444
v 0.350694 0.000000 -0.819444
v 0.000000 -0.350694 -0.819444
v -0.326389 -0.326389 -0.763889
v -0.326389 0.326389 -0.763889
v 0.326389 0.326389 -0.763889
v 0.326389 -0.326389 -0.763889
v 0.878472 0.000000 0.000000
v 0.819444 0.000000 -0.350694
v 0.819444 0.350694 0.000000
v 0.819444 0.000000 0.350694
v 0.819444 -0.350694 0.000000
v 0.763889 -0.326389 -0.326389
v 0.763889 0.326389 -0.326389
v 0.763889 0.326389 0.326389
v 0.763889 -0.326389 0.326389
v 0.000000 0.000000 0.878472
v 0.350694 0.000000 0.819444
v 0.000000 0.350694 0.819444
v -0.350694 0.000000 0.819444
v 0.000000 -0.350694 0.819444
v 0.326389 -0.326389 0.763889
v 0.326389 0.326389 0.763889
v -0.326389 0.326389 0.763889
v -0.326389 -0.326389 0.763889
v 0.000000 -0.878472 0.000000
v 0.000000 -0.819444 -0.350694
v 0.350694 -0.819444 0.000000
v 0.000000 -0.819444 0.350694
v -0.350694 -0.819444 0.000000
v -0.326389 -0.763889 -0.326389
v 0.326389 -0.763889 -0.326389
v 0.326389 -0.763889 0.326389
v -0.326389 -0.763889 0.326389
v 0.000000 0.878472 0.000000
v 0.000000 0.819444 -0.350694
v -0.350694 0.819444 0.000000
v 0.000000 0.819444 0.350694
v 0.350694 0.819444 0.000000
v 0.326389 0.763889 -0.326389
v -0.326389 0.763889 -0.326389
v -0.326389 0.763889 0.326389
v 0.326389 0.763889 0.326389
v -0.598958 -0.598958 -0.302083
v -0.643229 -0.643229 0.000000
v -0.598958 -0.598958 0.302083
v -0.598958 -0.302083 0.598958
v -0.643229 0.000000 0.643229
v -0.598958 0.302083 0.598958
v -0.598958 0.598958 0.302083
v -0.643229 0.643229 0.000000
v -0.598958 0.598958 -0.302083
v -0.598958 0.302083 -0.598958
v -0.643229 0.000000 -0.643229
v -0.598958 -0.302083 -0.598958
v 0.302083 -0.598958 -0.598958
v 0.000000 -0.643229 -0.643229
v -0.302083 -0.598958 -0.598958
v -0.302083 0.598958 -0.598958
v 0.000000 0.643229 -0.643229
v 0.302083 0.598958 -0.598958
v 0.598958 0.302083 -0.598958
v 0.643229 0.000000 -0.643229
v 0.598958 -0.302083 -0.598958
v 0.598958 -0.598958 0.302083
v 0.643229 -0.643229 0.000000
v 0.598958 -0.598958 -0.302083
v 0.598958 0.598958 -0.302083
v 0.643229 0.643229 0.000000
v 0.598958 0.598958 0.302083
v 0.598958 0.302083 0.598958
v 0.643229 0.000000 0.643229
v 0.598958 -0.302083 0.598958
v -0.302083 -0.598958 0.598958
v 0.000000 -0.643229 0.643229
v 0.302083 -0.598958 0.598958
v 0.302083 0.598958 0.598958
v 0.000000 0.643229 0.643229
v -0.302083 0.598958 0.598958
v -0.509259 -0.509259 0.509259
v -0.509259 0.509259 0.509259
v -0.509259 -0.509259 -0.509259
v -0.509259 0.509259 -0.509259
v 0.509259 -0.509259 0.509259
v 0.509259 0.509259 0.509259
v 0.509259 -0.509259 -0.509259
v 0.509259 0.509259 -0.509259
vt 0.222134 0.510359
vt 0.275944 0.627978
vt 0.222134 0.637403
vt 0.284383 0.739345
vt 0.222134 0.757107
vt 0.276022 0.510359
vt 0.326797 0.617983
vt 0.326797 0.703724
vt 0.168324 0.627978
vt 0.168246 0.510359
vt 0.117472 0.617983
vt 0.117472 0.510359
vt 0.159885 0.739345
vt 0.117472 0.703724
vt 0.168324 0.392741
vt 0.222134 0.383316
vt 0.159885 0.281374
vt 0.222134 0.263611
vt 0.117472 0.402735
vt 0.117472 0.316995
vt 0.275944 0.392741
vt 0.326797 0.402735
vt 0.326797 0.510359
vt 0.284383 0.281374
vt 0.326797 0.316995
vt 0.160348 0.016864
vt 0.326797 0.187628
vt 0.222134 0.143907
vt 0.431459 0.143907
vt 0.369211 0.281374
vt 0.117472 0.187628
vt 0.012809 0.143907
vt 0.075058 0.281374
vt 0.012809 0.263611
vt 0.997649 0.016864
vt 0.745447 0.187628
vt 0.640785 0.143907
vt 0.703033 0.281374
vt 0.640785 0.263611
vt 0.850110 0.143907
vt 0.787861 0.281374
vt 0.745447 0.316995
vt 0.536122 0.187628
vt 0.493708 0.281374
vt 0.431459 0.263611
vt 0.578536 0.281374
vt 0.536122 0.316995
vt 0.640785 0.510359
vt 0.586975 0.392741
vt 0.640785 0.383316
vt 0.586897 0.510359
vt 0.536122 0.402735
vt 0.694595 0.392741
vt 0.694673 0.510359
vt 0.745447 0.402735
vt 0.745447 0.510359
vt 0.694595 0.627978
vt 0.640785 0.637403
vt 0.703033 0.739345
vt 0.640785 0.757107
vt 0.745447 0.617983
vt 0.745447 0.703724
vt 0.586975 0.627978
vt 0.536122 0.617983
vt 0.536122 0.510359
vt 0.578536 0.739345
vt 0.536122 0.703724
vt 0.578999 1.003855
vt 0.536122 0.833091
vt 0.640785 0.876811
vt 0.431459 0.876811
vt 0.493708 0.739345
vt 0.745447 0.833091
vt 0.850110 0.876811
vt 0.787861 0.739345
vt 0.850110 0.757107
vt 0.844273 0.232247
vt 0.222134 0.876811
vt 0.012809 0.876811
vt 0.075058 0.739345
vt 0.117472 0.833091
vt 0.326797 0.833091
vt 0.369211 0.739345
vt 0.431459 0.757107
vt 0.431459 0.510359
vt 0.377650 0.392741
vt 0.431459 0.383316
vt 0.377571 0.510359
vt 0.485269 0.392741
vt 0.485347 0.510359
vt 0.485269 0.627978
vt 0.431459 0.637403
vt 0.377650 0.627978
vt 0.850110 0.510359
vt 0.796300 0.392741
vt 0.850110 0.383316
vt 0.850110 0.263611
vt 0.796222 0.510359
vt 0.012809 0.510359
vt 0.066619 0.392741
vt 0.066697 0.510359
vt 0.012809 0.383316
vt 0.066619 0.627978
vt 0.012809 0.637403
vt 0.012809 0.757107
vt 0.796300 0.627978
vt 0.850110 0.637403
vn -0.9705 -0.1774 0.1634
vn -0.8398 -0.1972 0.5059
vn -0.8342 -0.5209 0.1808
vn -0.7123 -0.5149 0.4769
vn -0.9705 0.1634 0.1774
vn -0.8398 0.5059 0.1972
vn -0.8342 0.1808 0.5209
vn -0.7123 0.4769 0.5149
vn -0.9705 0.1774 -0.1634
vn -0.8398 0.1972 -0.5059
vn -0.8342 0.5209 -0.1808
vn -0.7123 0.5149 -0.4769
vn -0.9705 -0.1634 -0.1774
vn -0.8398 -0.5059 -0.1972
vn -0.8342 -0.1808 -0.5209
vn -0.7123 -0.4769 -0.5149
vn -0.1634 -0.1774 -0.9705
vn -0.5059 -0.1972 -0.8398
vn -0.1808 -0.5209 -0.8342
vn -0.4769 -0.5149 -0.7123
vn -0.1774 0.1634 -0.9705
vn -0.1972 0.5059 -0.8398
vn -0.5209 0.1808 -0.8342
vn -0.5149 0.4769 -0.7123
vn 0.1634 0.1774 -0.9705
vn 0.5059 0.1972 -0.8398
vn 0.1808 0.5209 -0.8342
vn 0.4769 0.5149 -0.7123
vn 0.1774 -0.1634 -0.9705
vn 0.1972 -0.5059 -0.8398
vn 0.5209 -0.1808 -0.8342
vn 0.5149 -0.4769 -0.7123
vn 0.9705 -0.1774 -0.1634
vn 0.8398 -0.1972 -0.5059
vn 0.8342 -0.5209 -0.1808
vn 0.7123 -0.5149 -0.4769
vn 0.9705 0.1634 -0.1774
vn 0.8398 0.5059 -0.1972
vn 0.8342 0.1808 -0.5209
vn 0.7123 0.4769 -0.5149
vn 0.9705 0.1774 0.1634
vn 0.8398 0.1972 0.5059
vn 0.8342 0.5209 0.1808
vn 0.7123 0.5149 0.4769
vn 0.9705 -0.1634 0.1774
vn 0.8398 -0.5059 0.1972
vn 0.8342 -0.1808 0.5209
vn 0.7123 -0.4769 0.5149
vn 0.1634 -0.1774 0.9705
vn 0.5059 -0.1972 0.8398
vn 0.1808 -0.5209 0.8342
vn 0.4769 -0.5149 0.7123
vn 0.1774 0.1634 0.9705
vn 0.1972 0.5059 0.8398
vn 0.5209 0.1808 0.8342
vn 0.5149 0.4769 0.7123
vn -0.1634 0.1774 0.9705
vn -0.5059 0.1972 0.8398
vn -0.1808 0.5209 0.8342
vn -0.4769 0.5149 0.7123
vn -0.1774 -0.1634 0.9705
vn -0.1972 -0.5059 0.8398
vn -0.5209 -0.1808 0.8342
vn -0.5149 -0.4769 0.7123
vn -0.1774 -0.9705 -0.1634
vn -0.1972 -0.8398 -0.5059
vn -0.5209 -0.8342 -0.1808
vn -0.5149 -0.7123 -0.4769
vn 0.1634 -0.9705 -0.1774
vn 0.5059 -0.8398 -0.1972
vn 0.1808 -0.8342 -0.5209
vn 0.4769 -0.7123 -0.5149
vn 0.1774 -0.9705 0.1634
vn 0.1972 -0.8398 0.5059
vn 0.5209 -0.8342 0.1808
vn 0.5149 -0.7123 0.4769
vn -0.1634 -0.9705 0.1774
vn -0.5059 -0.8398 0.1972
vn -0.1808 -0.8342 0.5209
vn -0.4769 -0.7123 0.5149
vn 0.1774 0.9705 -0.1634
vn 0.1972 0.8398 -0.5059
vn 0.5209 0.8342 -0.1808
vn 0.5149 0.7123 -0.4769
vn -0.1634 0.9705 -0.1774
vn -0.5059 0.8398 -0.1972
vn -0.1808 0.8342 -0.5209
vn -0.4769 0.7123 -0.5149
vn -0.1774 0.9705 0.1634
vn -0.1972 0.8398 0.5059
vn -0.5209 0.8342 0.1808
vn -0.5149 0.7123 0.4769
vn 0.1634 0.9705 0.1774
vn 0.5059 0.8398 0.1972
vn 0.1808 0.8342 0.5209
vn 0.4769 0.7123 0.5149
vn -0.9705 -0.1634 0.1774
vn -0.8342 -0.1808 0.5209
vn -0.8398 -0.5059 0.1972
vn -0.7123 -0.4769 0.5149
vn -0.9705 0.1774 0.1634
vn -0.8342 0.5209 0.1808
vn -0.8398 0.1972 0.5059
vn -0.7123 0.5149 0.4769
vn -0.9705 0.1634 -0.1774
vn -0.8342 0.1808 -0.5209
vn -0.8398 0.5059 -0.1972
vn -0.7123 0.4769 -0.5149
vn -0.9705 -0.1774 -0.1634
vn -0.8342 -0.5209 -0.1808
vn -0.8398 -0.1972 -0.5059
vn -0.7123 -0.5149 -0.4769
vn -0.1774 -0.1634 -0.9705
vn -0.5209 -0.1808 -0.8342
vn -0.1972 -0.5059 -0.8398
vn -0.5149 -0.4769 -0.7123
vn -0.1634 0.1774 -0.9705
vn -0.1808 0.5209 -0.8342
vn -0.5059 0.1972 -0.8398
vn -0.4769 0.5149 -0.7123
vn 0.1774 0.1634 -0.9705
vn 0.5209 0.1808 -0.8342
vn 0.1972 0.5059 -0.8398
vn 0.5149 0.4769 -0.7123
vn 0.1634 -0.1774 -0.9705
vn 0.1808 -0.5209 -0.8342
vn 0.5059 -0.1972 -0.8398
vn 0.4769 -0.5149 -0.7123
vn 0.9705 -0.1634 -0.1774
vn 0.8342 -0.1808 -0.5209
vn 0.8398 -0.5059 -0.1972
vn 0.7123 -0.4769 -0.5149
vn 0.9705 0.1774 -0.1634
vn 0.8342 0.5209 -0.1808
vn 0.8398 0.1972 -0.5059
vn 0.7123 0.5149 -0.4769
vn 0.9705 0.1634 0.1774
vn 0.8342 0.1808 0.5209
vn 0.8398 0.5059 0.1972
vn 0.7123 0.4769 0.5149
vn 0.9705 -0.1774 0.1634
vn 0.8342 -0.5209 0.1808
vn 0.8398 -0.1972 0.5059
vn 0.7123 -0.5149 0.4769
vn 0.1774 -0.1634 0.9705
vn 0.5209 -0.1808 0.8342
vn 0.1972 -0.5059 0.8398
vn 0.5149 -0.4769 0.7123
vn 0.1634 0.1774 0.9705
vn 0.1808 0.5209 0.8342
vn 0.5059 0.1972 0.8398
vn 0.4769 0.5149 0.7123
vn -0.1774 0.1634 0.9705
vn -0.5209 0.1808 0.8342
vn -0.1972 0.5059 0.8398
vn -0.5149 0.4769 0.7123
vn -0.1634 -0.1774 0.9705
vn -0.1808 -0.5209 0.8342
vn -0.5059 -0.1972 0.8398
vn -0.4769 -0.5149 0.7123
vn -0.1634 -0.9705 -0.1774
vn -0.1808 -0.8342 -0.5209
vn -0.5059 -0.8398 -0.1972
vn -0.4769 -0.7123 -0.5149
vn 0.1774 -0.9705 -0.1634
vn 0.5209 -0.8342 -0.1808
vn 0.1972 -0.8398 -0.5059
vn 0.5149 -0.7123 -0.4769
vn 0.1634 -0.9705 0.1774
vn 0.1808 -0.8342 0.5209
vn 0.5059 -0.8398 0.1972
vn 0.4769 -0.7123 0.5149
vn -0.1774 -0.9705 0.1634
vn -0.5209 -0.8342 0.1808
vn -0.1972 -0.8398 0.5059
vn -0.5149 -0.7123 0.4769
vn 0.1634 0.9705 -0.1774
vn 0.1808 0.8342 -0.5209
vn 0.5059 0.8398 -0.1972
vn 0.4769 0.7123 -0.5149
vn -0.1774 0.9705 -0.1634
vn -0.5209 0.8342 -0.1808
vn -0.1972 0.8398 -0.5059
vn -0.5149 0.7123 -0.4769
vn -0.1634 0.9705 0.1774
vn -0.1808 0.8342 0.5209
vn -0.5059 0.8398 0.1972
vn -0.4769 0.7123 0.5149
vn 0.1774 0.9705 0.1634
vn 0.5209 0.8342 0.1808
vn 0.1972 0.8398 0.5059
vn 0.5149 0.7123 0.4769
usemtl None
s off
f 1/1/1 6/2/1 2/3/1
f 2/3/2 58/4/2 59/5/2
f 5/6/3 57/7/3 6/2/3
f 6/2/4 91/8/4 58/4/4
f 1/1/5 7/9/5 3/10/5
f 3/10/6 61/11/6 62/12/6
f 2/3/7 60/13/7 7/9/7
f 7/9/8 92/14/8 61/11/8
f 1/1/9 8/15/9 4/16/9
f 4/16/10 64/17/10 65/18/10
f 3/10/11 63/19/11 8/15/11
f 8/15/12 94/20/12 64/17/12
f 1/1/13 9/21/13 5/6/13
f 5/6/14 55/22/14 56/23/14
f 4/16/15 66/24/15 9/21/15
f 9/21/16 93/25/16 55/22/16
f 10/26/17 15/27/17 11/28/17
f 11/28/18 66/24/18 65/18/18
f 14/29/19 69/30/19 15/27/19
f 15/27/20 93/25/20 66/24/20
f 10/26/21 16/31/21 12/32/21
f 12/32/22 70/33/22 71/34/22
f 11/28/23 64/17/23 16/31/23
f 16/31/24 94/20/24 70/33/24
f 10/35/25 17/36/25 13/37/25
f 13/37/26 73/38/26 74/39/26
f 12/40/27 72/41/27 17/36/27
f 17/36/28 98/42/28 73/38/28
f 10/35/29 18/43/29 14/29/29
f 14/29/30 67/44/30 68/45/30
f 13/37/31 75/46/31 18/43/31
f 18/43/32 97/47/32 67/44/32
f 19/48/33 24/49/33 20/50/33
f 20/50/34 75/46/34 74/39/34
f 23/51/35 78/52/35 24/49/35
f 24/49/36 97/47/36 75/46/36
f 19/48/37 25/53/37 21/54/37
f 21/54/38 79/55/38 80/56/38
f 20/50/39 73/38/39 25/53/39
f 25/53/40 98/42/40 79/55/40
f 19/48/41 26/57/41 22/58/41
f 22/58/42 82/59/42 83/60/42
f 21/54/43 81/61/43 26/57/43
f 26/57/44 96/62/44 82/59/44
f 19/48/45 27/63/45 23/51/45
f 23/51/46 76/64/46 77/65/46
f 22/58/47 84/66/47 27/63/47
f 27/63/48 95/67/48 76/64/48
f 28/68/49 33/69/49 29/70/49
f 29/70/50 84/66/50 83/60/50
f 32/71/51 87/72/51 33/69/51
f 33/69/52 95/67/52 84/66/52
f 28/68/53 34/73/53 30/74/53
f 30/74/54 88/75/54 89/76/54
f 29/70/55 82/59/55 34/73/55
f 34/73/56 96/62/56 88/75/56
f 28/68/57 35/77/57 31/78/57
f 31/78/58 60/13/58 59/5/58
f 30/79/59 90/80/59 35/81/59
f 35/81/60 92/14/60 60/13/60
f 28/68/61 36/82/61 32/71/61
f 32/71/62 85/83/62 86/84/62
f 31/78/63 58/4/63 36/82/63
f 36/82/64 91/8/64 85/83/64
f 37/85/65 42/86/65 38/87/65
f 38/87/66 69/30/66 68/45/66
f 41/88/67 55/22/67 42/86/67
f 42/86/68 93/25/68 69/30/68
f 37/85/69 43/89/69 39/90/69
f 39/90/70 78/52/70 77/65/70
f 38/87/71 67/44/71 43/89/71
f 43/89/72 97/47/72 78/52/72
f 37/85/73 44/91/73 40/92/73
f 40/92/74 87/72/74 86/84/74
f 39/90/75 76/64/75 44/91/75
f 44/91/76 95/67/76 87/72/76
f 37/85/77 45/93/77 41/88/77
f 41/88/78 57/7/78 56/23/78
f 40/92/79 85/83/79 45/93/79
f 45/93/80 91/8/80 57/7/80
f 46/94/81 51/95/81 47/96/81
f 47/96/82 72/41/82 71/97/82
f 50/98/83 79/55/83 51/95/83
f 51/95/84 98/42/84 72/41/84
f 46/99/85 52/100/85 48/101/85
f 48/101/86 63/19/86 62/12/86
f 47/102/87 70/33/87 52/100/87
f 52/100/88 94/20/88 63/19/88
f 46/99/89 53/103/89 49/104/89
f 49/104/90 90/80/90 89/105/90
f 48/101/91 61/11/91 53/103/91
f 53/103/92 92/14/92 90/80/92
f 46/94/93 54/106/93 50/98/93
f 50/98/94 81/61/94 80/56/94
f 49/107/95 88/75/95 54/106/95
f 54/106/96 96/62/96 81/61/96
f 1/1/97 5/6/97 6/2/97
f 2/3/98 6/2/98 58/4/98
f 5/6/99 56/23/99 57/7/99
f 6/2/100 57/7/100 91/8/100
f 1/1/101 2/3/101 7/9/101
f 3/10/102 7/9/102 61/11/102
f 2/3/103 59/5/103 60/13/103
f 7/9/104 60/13/104 92/14/104
f 1/1/105 3/10/105 8/15/105
f 4/16/106 8/15/106 64/17/106
f 3/10/107 62/12/107 63/19/107
f 8/15/108 63/19/108 94/20/108
f 1/1/109 4/16/109 9/21/109
f 5/6/110 9/21/110 55/22/110
f 4/16/111 65/18/111 66/24/111
f 9/21/112 66/24/112 93/25/112
f 10/26/113 14/29/113 15/27/113
f 11/28/114 15/27/114 66/24/114
f 14/29/115 68/45/115 69/30/115
f 15/27/116 69/30/116 93/25/116
f 10/26/117 11/28/117 16/31/117
f 12/32/118 16/31/118 70/33/118
f 11/28/119 65/18/119 64/17/119
f 16/31/120 64/17/120 94/20/120
f 10/35/121 12/40/121 17/36/121
f 13/37/122 17/36/122 73/38/122
f 12/40/123 71/97/123 72/41/123
f 17/36/124 72/41/124 98/42/124
f 10/35/125 13/37/125 18/43/125
f 14/29/126 18/43/126 67/44/126
f 13/37/127 74/39/127 75/46/127
f 18/43/128 75/46/128 97/47/128
f 19/48/129 23/51/129 24/49/129
f 20/50/130 24/49/130 75/46/130
f 23/51/131 77/65/131 78/52/131
f 24/49/132 78/52/132 97/47/132
f 19/48/133 20/50/133 25/53/133
f 21/54/134 25/53/134 79/55/134
f 20/50/135 74/39/135 73/38/135
f 25/53/136 73/38/136 98/42/136
f 19/48/137 21/54/137 26/57/137
f 22/58/138 26/57/138 82/59/138
f 21/54/139 80/56/139 81/61/139
f 26/57/140 81/61/140 96/62/140
f 19/48/141 22/58/141 27/63/141
f 23/51/142 27/63/142 76/64/142
f 22/58/143 83/60/143 84/66/143
f 27/63/144 84/66/144 95/67/144
f 28/68/145 32/71/145 33/69/145
f 29/70/146 33/69/146 84/66/146
f 32/71/147 86/84/147 87/72/147
f 33/69/148 87/72/148 95/67/148
f 28/68/149 29/70/149 34/73/149
f 30/74/150 34/73/150 88/75/150
f 29/70/151 83/60/151 82/59/151
f 34/73/152 82/59/152 96/62/152
f 28/68/153 30/74/153 35/77/153
f 31/78/154 35/81/154 60/13/154
f 30/79/155 89/105/155 90/80/155
f 35/81/156 90/80/156 92/14/156
f 28/68/157 31/78/157 36/82/157
f 32/71/158 36/82/158 85/83/158
f 31/78/159 59/5/159 58/4/159
f 36/82/160 58/4/160 91/8/160
f 37/85/161 41/88/161 42/86/161
f 38/87/162 42/86/162 69/30/162
f 41/88/163 56/23/163 55/22/163
f 42/86/164 55/22/164 93/25/164
f 37/85/165 38/87/165 43/89/165
f 39/90/166 43/89/166 78/52/166
f 38/87/167 68/45/167 67/44/167
f 43/89/168 67/44/168 97/47/168
f 37/85/169 39/90/169 44/91/169
f 40/92/170 44/91/170 87/72/170
f 39/90/171 77/65/171 76/64/171
f 44/91/172 76/64/172 95/67/172
f 37/85/173 40/92/173 45/93/173
f 41/88/174 45/93/174 57/7/174
f 40/92/175 86/84/175 85/83/175
f 45/93/176 85/83/176 91/8/176
f 46/94/177 50/98/177 51/95/177
f 47/96/178 51/95/178 72/41/178
f 50/98/179 80/56/179 79/55/179
f 51/95/180 79/55/180 98/42/180
f 46/99/181 47/102/181 52/100/181
f 48/101/182 52/100/182 63/19/182
f 47/102/183 71/34/183 70/33/183
f 52/100/184 70/33/184 94/20/184
f 46/99/185 48/101/185 53/103/185
f 49/104/186 53/103/186 90/80/186
f 48/101/187 62/12/187 61/11/187
f 53/103/188 61/11/188 92/14/188
f 46/94/189 49/107/189 54/106/189
f 50/98/190 54/106/190 81/61/190
f 49/107/191 89/76/191 88/75/191
f 54/106/192 88/75/192 96/62/192
